<svg viewBox="0 0 168 32" class="css-13dlwng"><path d="M134.123 5.69921V10.6349H137.772V26.3005H142.707V5.69921H134.123Z" class="css-17f4zqp"></path><path d="M14.1977 20.9811C13.2578 21.7482 12.1214 22.1313 10.7886 22.1305C9.17172 22.1305 7.80288 21.543 6.68211 20.3682C5.56135 19.1933 5.00068 17.7372 5.0001 15.9999C5.0001 14.2625 5.56077 12.8115 6.68211 11.647C7.80345 10.4824 9.17229 9.90001 10.7886 9.89973C12.1417 9.89973 13.288 10.2726 14.2273 11.0182C14.8947 11.5478 15.393 12.2629 15.7394 13.1496H21.0004C20.516 10.7578 19.3292 8.84663 17.4398 7.41599C15.5505 5.98534 13.333 5.27002 10.7873 5.27002C7.77727 5.27002 5.227 6.30724 3.13655 8.38167C1.04609 10.4561 0.000572258 12.9955 0 15.9999C0 19.0245 1.04552 21.5691 3.13655 23.6335C5.22758 25.6979 7.77827 26.73 10.7886 26.7297C13.435 26.7297 15.6874 26.0041 17.5459 24.5528C19.4043 23.1016 20.5658 21.109 21.0305 18.575H15.8291C15.4591 19.5888 14.917 20.3939 14.1977 20.9811Z" class="css-17f4zqp"></path><path d="M28.1126 5.69921H23.1764V26.3005H37.1321L39.0566 21.794H28.1126V5.69921Z" class="css-17f4zqp"></path><path d="M93.1715 14.099L88.9774 13.1492C87.8901 12.9031 87.3464 12.3308 87.3464 11.4324C87.3464 10.8401 87.5978 10.3445 88.1005 9.94565C88.6033 9.54679 89.2578 9.34736 90.0641 9.34736C90.881 9.33831 91.6775 9.60269 92.3268 10.0984C92.9903 10.5992 93.4128 11.3093 93.5942 12.229L98.4814 11.2174C98.0997 9.35751 97.1644 7.90126 95.6754 6.84859C94.1864 5.79592 92.3358 5.26973 90.1238 5.27002C87.73 5.27002 85.7986 5.85244 84.3296 7.01727C82.8607 8.1821 82.1266 9.75581 82.1274 11.7384C82.1274 14.8652 83.9376 16.8477 87.558 17.6857L91.7826 18.6055C92.4865 18.7486 92.9742 18.9631 93.2457 19.2493C93.5172 19.5354 93.653 19.9235 93.653 20.4137C93.653 21.048 93.3865 21.5591 92.8534 21.9468C92.3204 22.3345 91.5907 22.5286 90.6645 22.5292C88.492 22.5292 87.1645 21.5176 86.6821 19.4943L81.5553 20.5064C81.8166 22.4684 82.7668 23.996 84.406 25.0893C86.0453 26.1826 88.0419 26.7294 90.3959 26.7297C92.7707 26.7297 94.752 26.147 96.3398 24.9816C97.9275 23.8162 98.7219 22.1814 98.7231 20.0772C98.7231 16.9298 96.8725 14.937 93.1715 14.099Z" class="css-17f4zqp"></path><path d="M100.861 5.69921V10.6349H104.509V26.3005H109.445V5.69921H100.861Z" class="css-17f4zqp"></path><path d="M73.8577 14.099L69.6637 13.1492C68.5764 12.9031 68.0327 12.3308 68.0327 11.4324C68.0327 10.8401 68.2841 10.3445 68.7868 9.94565C69.2896 9.54679 69.9441 9.34736 70.7504 9.34736C71.5673 9.33831 72.3638 9.60269 73.0131 10.0984C73.6766 10.5992 74.0991 11.3093 74.2805 12.229L79.1677 11.2174C78.7863 9.35751 77.851 7.90126 76.3617 6.84859C74.8724 5.79592 73.0218 5.26973 70.81 5.27002C68.4166 5.27002 66.4852 5.85244 65.0159 7.01727C63.5467 8.1821 62.8126 9.75581 62.8138 11.7384C62.8138 14.8652 64.6239 16.8477 68.2443 17.6857L72.4689 18.6055C73.1728 18.7486 73.6605 18.9631 73.932 19.2493C74.2035 19.5354 74.3393 19.9235 74.3393 20.4137C74.3393 21.048 74.0728 21.5591 73.5397 21.9468C73.0067 22.3345 72.277 22.5286 71.3508 22.5292C69.1783 22.5292 67.8508 21.5176 67.3683 19.4943L62.2416 20.5064C62.5029 22.4684 63.4531 23.996 65.0923 25.0893C66.7316 26.1826 68.7282 26.7294 71.0822 26.7297C73.457 26.7297 75.4383 26.147 77.0261 24.9816C78.6138 23.8162 79.4082 22.1814 79.4094 20.0772C79.4094 16.9298 77.5588 14.937 73.8577 14.099Z" class="css-17f4zqp"></path><path d="M56.575 26.3005H62.0451L53.2466 5.69921H48.3109L39.5124 26.3005H45.0134L46.419 22.6524H55.1698L56.575 26.3005ZM50.7946 11.4178L53.4389 18.1827H48.1808L50.7946 11.4178Z" class="css-17f4zqp"></path><path d="M122.32 5.27002C116.394 5.27002 111.59 10.074 111.59 15.9999C111.59 21.9257 116.394 26.7297 122.32 26.7297C128.246 26.7297 133.05 21.9257 133.05 15.9999C133.05 10.074 128.246 5.27002 122.32 5.27002ZM126.519 20.3682C125.396 21.5233 123.996 22.1006 122.32 22.1C120.644 22.0994 119.244 21.5221 118.12 20.3682C116.996 19.2134 116.434 17.7676 116.434 16.0308C116.434 14.2728 116.996 12.8112 118.12 11.6461C119.245 10.481 120.645 9.89873 122.32 9.8993C123.996 9.8993 125.395 10.4816 126.519 11.6461C127.643 12.8107 128.206 14.2722 128.206 16.0308C128.206 17.7678 127.644 19.2137 126.519 20.3682Z" class="css-17f4zqp"></path><path d="M166.1 13.7281H159.34V6.5576H154.834V13.7281H148.074V17.8424H154.834V25.0129H159.34V17.8424H166.1V13.7281Z" class="css-17f4zqp"></path></svg>